<svg xmlns="http://www.w3.org/2000/svg" viewBox="0 0 120 120"><defs><linearGradient id="p" x1="0" x2="1"><stop offset="0" stop-color="#f3ead8"/><stop offset=".5" stop-color="#fffaf0"/><stop offset="1" stop-color="#e6dac2"/></linearGradient>
<linearGradient id="k" x1="0" x2="1"><stop offset="0" stop-color="#23468c"/><stop offset=".5" stop-color="#3a6bc4"/><stop offset="1" stop-color="#1c3a75"/></linearGradient>
<linearGradient id="m" x1="0" x2="0" y1="0" y2="1"><stop offset="0" stop-color="#f4f4f4"/><stop offset=".5" stop-color="#9a9a9a"/><stop offset="1" stop-color="#dcdcdc"/></linearGradient></defs><ellipse cx="60" cy="108" rx="34" ry="5.5" fill="#000" opacity=".18"/><rect x="28" y="24" width="70" height="84" rx="5" fill="#cdbf9f"/>
<rect x="24" y="20" width="70" height="86" rx="5" fill="url(#p)"/>
<path d="M24 25a5 5 0 0 1 5-5h60a5 5 0 0 1 5 5v15H24z" fill="url(#k)"/>
<path d="M34 54h50M34 64h50M34 74h50M34 84h34" stroke="#b9c7de" stroke-width="2" stroke-linecap="round"/>
<path d="M34 54h30" stroke="#a0361f" stroke-width="2.200" stroke-linecap="round"/>
<g fill="none" stroke="url(#m)" stroke-width="3.200" stroke-linecap="round"><path d="M36 13v16"/><path d="M48 13v16"/><path d="M60 13v16"/><path d="M72 13v16"/><path d="M84 13v16"/></g>
<g fill="#16305f"><circle cx="36" cy="30" r="2.600"/><circle cx="48" cy="30" r="2.600"/><circle cx="60" cy="30" r="2.600"/><circle cx="72" cy="30" r="2.600"/><circle cx="84" cy="30" r="2.600"/></g>
<path d="M28 44v58" stroke="#fff" stroke-width="3" opacity=".5" stroke-linecap="round"/></svg>
