<svg xmlns="http://www.w3.org/2000/svg" width="120" height="120" viewBox="0 0 120 120" fill="none" stroke="#000" stroke-width="1.2">
  <!-- jaali tile: interlocking circles, an eight-petal flower at the centre, quarter flowers at the corners -->
  <circle cx="60" cy="60" r="30"/><circle cx="0" cy="0" r="30"/><circle cx="120" cy="0" r="30"/><circle cx="0" cy="120" r="30"/><circle cx="120" cy="120" r="30"/>
  <circle cx="60" cy="0" r="30"/><circle cx="60" cy="120" r="30"/><circle cx="0" cy="60" r="30"/><circle cx="120" cy="60" r="30"/>
  <g transform="translate(60 60)"><path d="M0-14Q5-7 0 0Q-5-7 0-14Z"/><path d="M0-14Q5-7 0 0Q-5-7 0-14Z" transform="rotate(45)"/><path d="M0-14Q5-7 0 0Q-5-7 0-14Z" transform="rotate(90)"/><path d="M0-14Q5-7 0 0Q-5-7 0-14Z" transform="rotate(135)"/><path d="M0-14Q5-7 0 0Q-5-7 0-14Z" transform="rotate(180)"/><path d="M0-14Q5-7 0 0Q-5-7 0-14Z" transform="rotate(225)"/><path d="M0-14Q5-7 0 0Q-5-7 0-14Z" transform="rotate(270)"/><path d="M0-14Q5-7 0 0Q-5-7 0-14Z" transform="rotate(315)"/><circle r="2.2" fill="#000" stroke="none"/></g>
  <circle cx="0" cy="0" r="3" fill="#000" stroke="none"/><circle cx="120" cy="0" r="3" fill="#000" stroke="none"/><circle cx="0" cy="120" r="3" fill="#000" stroke="none"/><circle cx="120" cy="120" r="3" fill="#000" stroke="none"/>
  <circle cx="60" cy="0" r="1.6" fill="#000" stroke="none"/><circle cx="60" cy="120" r="1.6" fill="#000" stroke="none"/><circle cx="0" cy="60" r="1.6" fill="#000" stroke="none"/><circle cx="120" cy="60" r="1.6" fill="#000" stroke="none"/>
</svg>
