<svg width="1354" height="428" viewBox="0 0 1354 428" fill="none" xmlns="http://www.w3.org/2000/svg">
<circle cx="214" cy="214" r="214" fill="white"/>
<path d="M209.426 51.3854V54.3055C183.724 53.0314 159.103 60.1662 137.023 72.8313C136.252 72.9415 134.668 71.2749 133.07 71.0889C128.077 70.5036 122.409 75.6688 120.474 79.918C116.803 87.962 121.431 92.9275 129.393 88.4716C133.711 86.0543 137.106 81.3161 137.657 76.3368C159.358 63.41 183.917 56.1305 209.426 57.5836V60.5037C188.552 58.2654 169.041 73.8093 163.807 93.5748C112.237 122.411 75.7226 173.663 84.531 235.122C97.9055 328.447 203.875 378.405 284.432 328.041C364.706 277.856 367.667 161.108 289.68 107.204C274.618 96.7911 259.783 90.9096 242.001 86.7568C240.996 86.5226 241.023 86.3367 242.029 86.3573C246.34 86.4744 253.619 88.5543 257.944 89.7526C366.868 119.849 387.887 251.534 307.778 324.797C223.351 402.014 91.6521 348.199 66.7971 243.015L64.7999 232.45C70.5368 293 114.648 345.066 172.911 361.663C248.978 383.336 329.059 343.261 356.862 269.695C388.521 185.922 340.058 88.9193 255.596 62.2323L240.383 58.3274C306.174 67.4251 360.891 117.61 374.327 182.837C396.82 292.057 305.685 393.653 194.35 379.934C121.452 370.954 61.2531 312.552 48.5261 240.529L46.2327 223.339C48.0095 272.091 71.1635 319.549 108.711 350.465C188.503 416.167 310.754 392.682 364.396 306.003C425.346 207.519 370.154 72.2735 263.165 36.0895L244.033 31C326.504 42.7216 392.309 111.701 401.358 194.42C415.807 326.492 294.211 432.337 165.267 397.358C43.8843 364.432 -10.5777 221.528 55.1789 114.442C77.8438 77.5283 111.865 51.957 151.025 34.3264C157.519 39.7809 165.673 42.6389 173.724 45.0149C185.315 48.4378 197.305 50.9928 209.426 51.3854Z" fill="#CB2323"/>
<path d="M160.771 220.05C161.391 219.981 163.298 219.616 163.505 218.962C152.534 215.815 145.496 209.155 147.576 197.02C149.456 186.063 157.768 178.24 166.515 172.248C167.231 171.759 171.28 169.782 170.785 169.059L152.376 156.683C151.184 155.63 151.983 152.861 153.498 152.654C155.289 152.407 160.557 156.194 162.307 157.317C166.914 160.292 171.267 163.701 175.86 166.704L181.645 163.412C173.05 149.383 168.002 127.868 181.714 115.313C195.653 102.552 215.646 106.925 229.248 117.696C237.684 124.377 249.096 140.437 247.202 151.663C246.789 154.121 244.571 155.919 244.048 158.343C243.676 160.058 243.318 164.762 244.089 166.242C244.709 167.427 251.128 169.755 252.726 170.719C256.568 173.04 262.291 179.266 264.853 182.998C267.87 187.392 269.888 192.31 271.678 197.309L281.162 195.278C278.4 189.362 275.831 181.249 280.067 175.423L308.654 175.616C311.953 177.785 311.513 182.785 310.975 186.297C310.431 189.844 307.676 195.092 307.47 197.365C307.367 198.48 308.083 199.995 308.131 201.276C308.365 207.351 308.214 210.457 306.203 216.132C304.591 220.684 302.167 224.981 300.728 229.595C299.736 232.763 299.488 235.78 298.696 238.858C298.124 241.076 296.313 249.044 295.335 250.429C295.177 250.656 295.066 250.897 294.763 250.973C293.276 251.393 292.491 249.065 292.022 247.977C290.308 243.969 289.881 239.533 288.545 235.429C288.062 233.948 287.408 231.152 285.735 230.952C283.82 230.725 275.411 230.711 274.233 231.875C273.379 232.715 274.55 236.978 274.619 238.425C274.895 244.113 274.378 249.781 273.51 255.38H316.313C318.269 255.38 318.551 262.667 316.313 262.667H274.784C274.268 262.983 274.282 263.39 274.22 263.92C273.868 266.895 274.736 270.249 274.598 273.403C274.337 279.588 273.008 286.013 266.582 288.334C266.169 288.486 263.655 289.25 263.497 289.25H257.849C259.881 292.308 260.687 294.56 259.261 298.128C256.913 303.981 239.709 317.514 233.69 320.276C228.979 322.438 217.802 325.579 214.303 320.235C211.245 315.565 218.787 313.699 221.328 312.287C221.741 312.06 221.948 312.315 221.796 311.474C208.959 309.78 196.576 306.86 184.648 301.805C164.455 293.252 147.438 279.002 132.899 262.846C126.24 262.033 118.891 263.273 112.307 262.674C109.711 262.439 108.919 260.601 109.25 258.128C109.387 257.068 110.51 255.373 111.598 255.373H129.993C129.731 253.72 128.113 252.474 128.581 250.676C137.355 248.28 152.954 244.251 156.653 234.85C157.148 233.59 157.968 232.412 156.494 231.606C156.239 231.469 152.961 230.601 152.768 230.601H146.026L145.661 220.036C150.482 219.658 156.047 220.546 160.778 220.036L160.771 220.05ZM236.72 135.899C230.123 119.067 207.843 108.468 190.826 115.327C178.043 120.479 177.548 135.169 179.207 146.966L179.889 147.379C185.571 141.353 191.686 135.671 199.73 132.972C212.024 128.846 224.778 132.352 236.713 135.899H236.72ZM188.457 147.923H196.473C200.213 147.923 205.075 153.013 207.086 155.891C208.367 157.723 211.321 164.004 212.423 164.941C213.642 165.974 217.154 165.547 216.686 167.751C216.128 170.402 211.486 169.789 209.462 169.72C209.228 168.309 204.207 161.249 203.429 161.415C201.053 165.168 197.072 166.07 193.388 167.799C193.284 168.143 193.422 168.384 193.56 168.68C193.753 169.101 197.017 172.854 197.575 173.412C213.497 189.383 235.501 185.574 238.876 161.897C239.165 159.886 238.945 156.353 239.372 154.741C239.73 153.391 241.968 150.919 242.54 148.805C243.008 147.069 243.235 145.699 242.195 144.087C240.708 141.78 238.277 142.283 236.011 141.525C234.572 141.05 233.084 139.934 231.617 139.363C222.265 135.699 212.754 133.591 202.768 136.353C198.801 137.455 188.732 142.737 188.057 147.152L188.463 147.902L188.457 147.923ZM196.618 152.331C192.43 151.029 184.276 153.901 185.041 159.176L186.473 159.411C188.56 156.126 192.568 154.679 196.314 154.328L196.618 152.338V152.331ZM192.644 162.131C193.773 162.661 198.27 160.836 197.967 159.562C196.425 156.415 192.148 159.459 192.644 162.131ZM215.956 189.093C203.863 184.934 192.685 177.695 184.992 167.386L179.896 169.424L209.427 190.732L215.956 189.093ZM204.303 193.095L203.546 191.855L174.696 172.386C163.725 178.432 153.099 187.929 152.217 201.304C151.06 218.859 179.917 216.187 190.647 212.778C194.593 211.524 196.659 210.987 197.01 206.393C198.146 191.497 182.052 192 171.804 193.57C170.061 193.838 167.3 194.851 165.819 194.913C164.118 194.982 163.615 192.069 164.834 191.338C166.446 190.374 176.549 189.176 176.983 188.728C177.086 186.132 174.063 185.712 172.224 184.885L172.3 183.687C174.2 182.744 176.122 183.611 178.078 183.639C179.049 180.567 173.691 178.694 175.736 176.036C181.508 176.587 183.126 183.212 185.936 187.255C188.202 190.512 187.933 188.99 191.273 189.569C194.613 190.147 198.477 192.268 199.937 195.305L204.303 193.115V193.095ZM245.164 214.899C247.078 216.008 249.144 211.035 249.571 209.768C251.858 202.936 255.033 188.584 253.752 181.717C253.056 177.971 251.975 176.352 248.869 174.218C247.03 172.957 244.806 171.442 243.662 174.348C242.519 177.255 239.854 189.734 239.633 192.902C239.489 194.975 239.406 197.062 240.742 198.742C241.541 199.747 242.925 200.112 243.215 201.373C243.834 204.079 242.354 206.331 242.602 208.9C242.712 210.085 244.275 214.375 245.177 214.899H245.164ZM237.085 179.617C236.217 179.417 236.493 179.768 236.273 180.092C232.65 185.402 226.404 190.319 219.599 189.086C218.945 193.625 230.226 195.546 232.712 194.369C234.847 193.356 237.746 182.234 237.078 179.617H237.085ZM304.481 181.07L285.039 180.753C282.215 185.918 286.389 193.997 292.629 194.203C300.466 194.465 305.115 188.611 304.481 181.07ZM286.609 220.76C287.202 216.345 282.456 214.162 283.827 209.41C285.439 203.797 294.385 203.797 293.565 198.763C292.842 194.334 283.111 198.9 281.024 201.511C276.651 206.979 278.09 220.408 286.616 220.76H286.609ZM235.632 201.469C236.19 200.67 234.799 199.768 234.179 199.465C228.229 196.579 211.796 196.738 205.571 198.907C202.01 200.147 198.539 204.307 200.867 208.012C203.002 211.414 207.781 213.039 211.528 213.742C213.174 214.052 217.595 214.775 219.035 214.575C222.313 214.121 221.383 209.734 221.838 207.165C222.072 205.829 222.561 203.928 223.311 202.805C226.211 198.453 234.875 202.557 235.639 201.469H235.632ZM299.109 200.471C296.203 203.274 305.886 204.444 304.694 199.989C304.116 199.183 299.867 199.741 299.109 200.471ZM263.497 219.692H274.791C274.984 219.692 275.611 219.231 276.017 219.286C276.348 218.914 274.791 210.691 274.495 209.424C274.123 207.833 273.132 202.688 271.162 202.592C266.155 203.728 264.213 207.192 263.414 211.958C263.201 213.218 262.415 219.355 263.497 219.692ZM227.616 203.659C227.072 206.979 235.267 206.256 235.26 204.933C234.978 204.644 233.428 203.659 233.263 203.659H227.616ZM294.536 205.56C292.243 206.228 292.505 209.251 294.901 209.782C295.976 210.016 300.521 210.284 301.65 210.126C305.121 209.644 305.473 206.194 302.022 205.574C300.872 205.367 295.507 205.278 294.536 205.56ZM234.172 209.486C234.021 206.524 229.537 208.225 227.616 208.397C227.685 211.738 232.085 209.527 234.172 209.486ZM225.433 214.954H232.898C234.145 214.954 234.861 213.914 233.965 212.791C232.43 210.87 227.574 211.731 225.481 212.454L225.433 214.954ZM293.813 212.846C292.56 213.136 291.719 214.596 292.133 215.815C292.684 217.44 303.448 218.115 302.236 214.121C301.726 212.447 295.273 212.509 293.813 212.846ZM219.517 218.68C219.069 218.363 210.495 217.426 208.67 216.958C205.619 216.173 202.699 214.864 200.047 213.177C195.343 216.813 189.31 217.729 183.532 218.411C183.346 219.155 184.366 219.189 184.841 219.279C191.142 220.429 198.091 220.291 204.462 221.159L220.322 221.145C220.536 220.945 219.771 218.866 219.51 218.68H219.517ZM292.353 218.308C291.905 218.439 291.589 218.79 291.43 219.224C290.466 222.468 297.787 224.003 299.571 221.889C301.471 218.149 294.536 217.667 292.353 218.315V218.308ZM284.35 227.247C285.191 226.331 284.55 224.141 283.455 223.783C282.828 223.576 281.031 223.377 280.273 223.321C274.805 222.936 268.689 223.445 263.125 223.349C234.633 222.853 206.06 223.06 177.513 222.984C171.652 222.97 165.957 222.743 160.062 222.984C157.479 223.087 151.604 222.399 149.669 223.886C148.326 224.912 149.166 227.268 150.268 227.646C152.417 228.376 157.148 227.04 159.662 228.087C200.667 227.605 241.768 229.341 282.704 227.97C283.097 227.86 284.109 227.495 284.343 227.247H284.35ZM231.183 230.725C230.198 230.808 228.146 230.911 227.416 231.324C226.383 231.91 221.755 237.825 220.715 239.189C219.964 240.174 216.962 243.913 216.762 244.733C216.238 246.861 222.12 253.5 223.89 253.865C226.693 254.444 231.837 246.951 233.242 244.788C234.647 242.626 239.475 234.657 239.282 232.619C239.062 230.326 232.829 230.587 231.19 230.718L231.183 230.725ZM260.15 232.185C253.765 244.568 246.011 256.138 238.256 267.68C237.498 270.16 244.902 277.99 246.465 278.272C250.06 278.927 254.089 272.281 255.969 269.705C263.166 259.809 269.991 248.3 268.8 235.518C268.386 231.076 263.552 230.215 260.157 232.185H260.15ZM243.283 282.708C226.273 268.631 212.017 251.675 199.035 233.886C175.667 224.782 169.042 242.77 183.897 259.588C196.803 274.202 212.182 282.074 231.817 283.073C235.667 283.266 239.441 282.501 243.29 282.708H243.283ZM172.61 232.075H162.954C158.808 240.256 150.792 244.995 144.332 251.007C144.036 252.088 149.683 258.335 150.509 258.252C161.157 252.818 168.257 243.004 172.61 232.075ZM134.986 252.55C133.299 252.922 132.769 254.444 133.685 255.89C147.396 272.742 163.636 287.646 183.663 296.619C192.341 300.504 210.24 307.508 219.427 307.514C225.405 307.514 226.376 302.149 221.7 300.476C218.642 299.381 213.559 298.837 210.061 297.907C185.771 291.427 169.077 282.212 151.48 264.326C148.808 261.606 144.449 255.587 141.784 253.624C140.317 252.543 136.722 252.178 134.993 252.557L134.986 252.55ZM178.374 259.099C175.964 257.701 173.285 263.941 172.41 265.201C171.432 266.599 166.26 271.503 166.108 272.047C165.771 273.279 167.162 275.036 168.057 275.793C168.78 276.406 173.25 278.748 174.042 278.899C177.155 279.491 183.023 268.576 182.3 265.594C182.114 264.829 178.829 259.368 178.374 259.106V259.099ZM266.472 261.634L251.465 280.538C251.142 281.255 251.844 282.06 252.402 282.508C254.564 284.243 262.581 284.691 265.239 284.085C266.038 283.906 267.415 282.632 267.849 281.957C269.654 279.161 269.33 272.095 269.137 268.679C269.089 267.797 268.462 262.233 268.249 261.916C267.932 261.448 266.954 261.461 266.465 261.627L266.472 261.634ZM197.292 277.68C195.213 278.073 191.735 284.037 191.383 285.945C190.619 290.111 197.83 291.482 200.77 290.648C203.532 289.863 203.801 283.775 203.119 281.523C202.568 279.698 199.193 277.315 197.292 277.68ZM220.956 286.434C217.464 287.226 218.539 292.811 218.69 295.469C223.229 297.769 229.028 296.426 227.967 290.201C227.526 287.632 223.36 285.889 220.963 286.434H220.956ZM217.416 318.045C218.325 320.558 221.962 319.856 224.048 319.394C231.369 317.755 235.474 312.866 241.128 308.789C246.011 305.269 255.466 301.881 254.585 294.539C254.13 290.758 247.292 288.238 244.027 287.618C240.081 286.86 236.293 286.757 232.595 288.506C231.211 296.261 230.529 302.983 226.72 310.042C224.737 313.713 221.817 317.37 217.423 318.051L217.416 318.045Z" fill="#CB2323"/>
<path d="M227.971 141.4C229.548 148.149 218.109 156.055 212.448 154.196C205.822 152.019 213.425 145.436 216.242 143.617C219.941 141.235 223.577 140.243 227.971 141.4ZM214.899 150.098C215.616 150.739 223.315 148.301 222.014 145.725C220.457 142.66 214.142 149.416 214.899 150.098Z" fill="#CB2323"/>
<path d="M217.728 170.247C226.385 169.242 215.373 176.356 212.136 174.173C210.628 172.086 216.296 170.413 217.728 170.247Z" fill="#CB2323"/>
<path d="M214.526 177.782C215.008 175.799 220.69 172.693 221.392 175.131C221.819 176.612 219.712 177.362 218.631 177.707C217.005 178.223 216.199 178.244 214.526 177.789V177.782Z" fill="#CB2323"/>
<path d="M1126.87 54.055V64.9088H1108.29L1111.39 184.069H1088.19L1091.3 108.237H1068.86L1066.54 110.548V137.639H1044.87V110.548L1042.55 108.237H1017.8L1015.76 111.748C1022.48 127.107 1023.63 153.994 1030.85 167.919C1033.49 173.01 1036.26 173.127 1041.74 173.273L1041.79 184.04H1014.7C1013.18 184.04 1009.52 178.042 1008.79 176.023C1005.4 166.837 993.17 110.987 993.697 102.766C993.872 99.9868 993.492 97.5293 996.154 95.8325H1047.24C1050.51 95.8325 1055.08 103.059 1054.23 106.657L1062.71 95.8325H1091.35C1089.04 85.7392 1096.41 73.364 1090.59 64.8797H972.223L976.641 181.494L975.412 183.367C970.965 183.923 953.792 186.029 952.329 181.494L953.675 120.583H919.621L921.171 154.637H889.458L887.38 152.063L890.423 110.724L892.793 108.413L899.405 108.091C898.732 105.78 901.072 102.357 901.072 101.245V64.8797H808.214V95.8325H867.779C868.364 95.8325 870.704 99.314 871.026 100.455C871.962 103.761 860.728 155.661 858.563 162.419C857.13 166.895 852.712 173.185 847.68 173.185H825.241V160.81C832.701 161.395 833.783 160.605 836.533 154.286C839.108 148.347 847.651 119.062 848.177 113.152C848.353 111.338 847.855 108.179 846.159 108.179H809.793L811.344 184.01H788.144L786.681 161.483C778.841 158.674 751.954 163.589 747.098 159.289C740.31 153.233 732.967 118.038 726.589 108.617L726.18 98.4363C726.502 97.4124 729.661 95.8325 730.1 95.8325H775.739V108.208H750.199C747.858 110.11 747.858 110.139 748.561 112.918C749.058 114.878 765.763 145.597 767.138 147.001C772.726 152.648 780.947 151.594 788.115 151.565L792.503 67.4541L790.426 64.8797H707.631L712.049 181.494L710.82 183.367C706.373 183.923 689.2 186.029 687.737 181.494L690.604 108.208H650.377C653.069 127.224 667.053 148.64 669.803 166.925C671.178 176.053 671.208 182.782 660.471 184.069C653.712 184.859 606.405 184.888 602.456 183.22C591.865 178.803 590.11 142.145 586.95 131.437C591.573 132.198 603.568 129.652 606.318 132.958C611.291 138.927 614.129 169.177 621.004 172.454C624.339 174.034 642.741 174.473 644.029 170.669L628.786 101.04C628.084 99.4018 629.869 95.8325 631.068 95.8325H690.634C689.61 85.9732 695.9 73.6565 689.873 64.8797H565.301C566.412 95.5986 567.378 126.288 568.343 157.007C568.607 165.199 573.2 176.843 567.641 184.01H545.202L548.244 90.3323C548.508 82.5795 553.072 71.6086 547.542 64.8505H509.627C509.685 86.5584 518.286 111.133 518.959 132.256C519.076 135.738 517.672 142.233 513.488 142.233H487.948C495.847 154.725 516.209 167.071 523.611 178.51C524.84 180.412 525.513 181.582 525.074 184.01H501.084C498.421 184.01 473.554 149.166 469.253 144.661L467.82 131.379H493.36C498.831 121.285 494.618 106.189 494.062 95.0718C493.594 85.4173 496.373 72.8373 491.81 64.8212H466.269V53.9964H1127.05L1126.87 54.055ZM956.659 64.9088H918.743C917.982 64.9088 916.198 67.4541 916.373 68.7707L919.504 108.237H955.108L956.659 64.9088Z" fill="white"/>
<path d="M763.393 223.791V234.645C760.38 234.762 753.739 233.445 752.686 237.161L757.22 353.805H734.02L736.331 234.645H657.399C651.577 243.334 657.077 255.826 656.638 265.598H714.682C715.267 265.598 717.929 268.67 718.251 269.811C719.773 274.872 709.036 320.424 706.666 328.762C703.828 338.738 704.589 341.371 692.828 342.775C689.405 343.185 675.508 343.653 673.577 342.278C667.843 329.639 675.713 332.711 680.745 329.142C686.128 325.309 694.408 286.574 695.344 277.973H656.667L659.534 351.259C658.042 355.794 640.957 353.688 636.451 353.132L634.989 330.605H597.073C596.254 330.605 592.831 326.128 592.041 324.812C588.267 318.229 575.365 284.058 573.756 276.539C573.083 273.409 573.083 265.627 576.974 265.627H624.164V278.002H596.312C595.844 280.752 596.692 282.829 597.512 285.316C598.477 288.242 614.129 316.679 615.68 318.2C618.898 321.36 633.526 323.232 635.837 319.897L639.611 234.674H554.505L557.606 353.834H534.406L535.928 304.303C528.263 309.95 506.701 353.834 499.592 353.834H472.501C472.179 350.47 472.237 348.275 473.963 345.233C479.522 335.461 503.57 318.405 511.967 307.404C513.166 305.854 514.951 305.444 514.278 302.753H487.187C486.602 302.753 483.442 298.862 482.945 297.721C480.195 291.372 485.871 260.419 486.397 250.911C486.719 245.528 486.222 240.057 486.397 234.674H466.269V223.849H763.393V223.791ZM535.928 291.899L538.765 237.19L536.688 234.616H500.323L503.512 283.268C503.249 285.462 507.608 291.87 508.837 291.87H535.928V291.899Z" fill="white"/>
<path d="M1014.12 223.792V234.646L996.532 234.85L993.899 238.537L998.61 353.776H975.41C972.806 333.326 976.697 311.209 976.96 290.32H939.834C944.135 299.711 944.837 314.251 942.935 324.374H910.432C910.754 311.911 910.198 297.254 912.07 284.995C912.509 282.157 913.708 279.846 915.844 277.945H976.96C976.112 275.955 978.511 273.351 978.511 272.532V234.617H887.203L890.304 353.776H867.104C867.396 342.191 866.723 330.489 867.045 318.903C867.63 296.932 869.444 274.551 870.146 252.375C870.468 242.457 877.577 232.598 860.901 234.646V223.792H1014.12Z" fill="white"/>
<path d="M800.592 312.012C801.937 314.587 804.6 317.044 806.764 319.005C814.225 325.763 836.635 341.619 840.906 348.319C842.135 350.221 842.808 351.391 842.398 353.819H818.408C808.725 342.205 794.272 330.531 785.174 318.946C781.224 313.885 774.729 306.98 781.487 301.422C789.503 299.608 813.61 304.406 818.321 298.028C819.813 285.974 834.324 246.537 831.31 237.234C830.959 236.122 830.14 235.332 829.233 234.659H795.179C788.479 234.659 798.456 260.171 800.27 263.594C804.132 270.82 808.9 268.538 816.068 268.684V279.538H787.426C780.2 270.205 776.104 250.019 774.671 238.141C774.115 233.548 772.769 227.082 776.602 223.835H844.68C849.391 223.835 848.659 236.941 848.513 240.072C847.782 256.075 843.627 284.044 840.321 299.959C839.795 302.504 838.595 312.042 835.377 312.042H800.562L800.592 312.012Z" fill="white"/>
<path d="M1353.94 224.052V234.906C1349.49 235.754 1333.9 232.624 1332.38 237.451L1335.36 265.859H1291.27C1277.9 292.453 1336.07 271.593 1343.2 283.559C1346.86 289.673 1342.62 324.664 1334.6 324.664H1312.16L1313.77 313.897C1326.18 318.432 1331.3 292.16 1323.78 292.16H1295.93C1295.69 292.16 1293.12 294.618 1292.8 295.291C1291.27 298.538 1300.29 340.14 1303.27 342.832C1305.76 345.084 1310.96 343.797 1312.34 345.699L1313.71 355.587H1286.62C1285.31 355.587 1282.06 350.146 1281.56 348.273C1279.1 339.35 1275.51 311.82 1275.07 302.195C1274.92 299.065 1274.45 294.501 1275.33 291.663C1276.53 287.772 1280.71 288.971 1281.21 285.987C1270.04 287.596 1267.72 253.484 1274.25 253.484H1315.26L1316.82 234.906H1252.6C1251.84 234.906 1250.05 237.451 1250.23 238.768L1254.91 354.066H1231.71C1228.17 347.074 1231.53 340.93 1231.71 334.699C1232.06 319.954 1232.18 305.296 1233.26 290.61H1199.21C1196.81 301.639 1204.03 315.272 1198.45 324.664H1166.73L1169.01 281.218L1170.86 278.176L1179.14 278.234C1176.8 266.532 1182.06 250.968 1180.75 240.231C1180.48 237.978 1180.57 236.252 1178.35 234.906H1147.39C1141.86 241.664 1146.46 252.635 1146.69 260.388C1147.6 290.785 1148.74 321.153 1149.5 351.55C1148.01 356.085 1130.83 353.978 1126.42 353.422L1125.19 351.55L1126.53 290.639H1092.48C1093.07 295.876 1097.22 312.318 1088.62 312.318H1063.08C1070.98 324.81 1091.34 337.156 1098.74 348.595C1099.97 350.497 1100.64 351.667 1100.2 354.095H1076.21C1073.7 354.095 1045.73 317.906 1044.35 314.746C1042.31 310.006 1042.8 306.379 1042.92 301.464H1068.46C1072.32 294.881 1071.09 282.506 1070.86 274.314C1070.74 270.657 1069.37 267.263 1069.19 263.606C1068.72 254.449 1071.5 242.425 1066.94 234.906H1044.5V224.081H1354L1353.94 224.052ZM1129.55 234.906H1084.67L1089.55 275.66L1091.63 278.234H1128L1129.55 234.906ZM1234.78 234.906H1196.11L1197.66 278.234H1233.26C1235.45 263.899 1234.78 249.388 1234.81 234.906H1234.78Z" fill="white"/>
<path d="M1222.45 400.606C1217.65 399.114 1220.49 368.395 1225.44 364.914C1230.38 361.432 1264.26 363.773 1272.36 364.65C1279.24 373.164 1320.11 407.364 1322.04 414.093C1322.54 415.819 1322.71 417.809 1321.63 419.301C1307.38 421.319 1296.06 425.035 1286.67 412.25C1280.03 403.239 1271.72 383.345 1265.14 376.528C1261.13 372.403 1253.4 374.89 1248.02 374.275C1246.59 383.374 1251.21 392.034 1248.02 400.577H1222.48L1222.45 400.606Z" fill="white"/>
</svg>
